<svg xmlns="http://www.w3.org/2000/svg" viewBox="0 0 18.8 48.1"><g><g><path d="M1.7,46.9l.8.2V27H16.4V47.2l.8-.2V26.2H1.7Z"/><path d="M9.4,29.8a5.8,5.8,0,1,0,5.8,5.8,5.74,5.74,0,0,0-5.8-5.8Zm0,10.8a5,5,0,1,1,0-10,5,5,0,1,1,0,10Z"/><path d="M5,47.8l.8.1V44H5Z"/><path d="M9,48.1h.8V44H9Z"/><path d="M13.1,47.9l.8-.1V44h-.8Z"/><path d="M14.6,16.8h-.8V13.3H5v3.5H4.2L0,28.7l.7.2,4-11.4h9.4l4,11.4.7-.2Zm-8.8,0V14h7.3v2.8Z"/><polygon points="9.4 2 14.6 15.2 15.3 15 9.4 0 3.5 15 4.2 15.2 9.4 2"/></g></g></svg>