<svg xmlns="http://www.w3.org/2000/svg" viewBox="0 0 43.7 46.3"><g><g><path d="M21.9,3.8A1.9,1.9,0,1,0,20,1.9a1.9,1.9,0,0,0,1.9,1.9Zm0-3.1a1.16,1.16,0,0,1,1.2,1.2,1.2,1.2,0,0,1-2.4,0A1.16,1.16,0,0,1,21.9.7Z"/><path d="M29.5,5.3a1.9,1.9,0,1,0-1.9-1.9,1.9,1.9,0,0,0,1.9,1.9Zm0-3.1a1.16,1.16,0,0,1,1.2,1.2,1.2,1.2,0,0,1-2.4,0,1.22,1.22,0,0,1,1.2-1.2Z"/><path d="M36,9.6a2,2,0,1,0-.1-3.9A2,2,0,0,0,34,7.6a2,2,0,0,0,2,2Zm0-3.1a1.16,1.16,0,0,1,1.2,1.2,1.2,1.2,0,0,1-2.4,0h0A1.16,1.16,0,0,1,36,6.5Z"/><path d="M40.3,16.1a1.9,1.9,0,0,0,1.9-1.9,2,2,0,0,0-1.9-1.9,1.9,1.9,0,0,0-1.9,1.9h0A1.9,1.9,0,0,0,40.3,16.1Zm0-3.1a1.2,1.2,0,1,1-1.2,1.2h0A1.16,1.16,0,0,1,40.3,13Z"/><path d="M41.8,19.8a1.9,1.9,0,1,0,1.9,1.9,1.9,1.9,0,0,0-1.9-1.9Zm0,3.1A1.15,1.15,0,1,1,43,21.8h0a1.07,1.07,0,0,1-1.2,1.1Z"/><path d="M40.2,27.5a1.9,1.9,0,0,0-1.9,1.9,2,2,0,0,0,1.9,1.9,1.9,1.9,0,0,0,1.9-1.9h0A1.84,1.84,0,0,0,40.2,27.5Zm0,3.1a1.2,1.2,0,1,1,1.2-1.2h0a1.16,1.16,0,0,1-1.2,1.2Z"/><path d="M36,33.9a1.9,1.9,0,0,0-1.9,1.9,2,2,0,0,0,1.9,2,1.9,1.9,0,0,0,1.9-1.9h0A1.92,1.92,0,0,0,36,33.9Zm0,3.2a1.2,1.2,0,1,1,1.2-1.2h0A1.22,1.22,0,0,1,36,37.1Z"/><path d="M29.5,38.3a1.9,1.9,0,0,0,0,3.8,2,2,0,0,0,1.9-1.9h0A1.9,1.9,0,0,0,29.5,38.3Zm0,3.1a1.2,1.2,0,1,1,1.2-1.2h0a1.29,1.29,0,0,1-1.2,1.2Z"/><path d="M21.9,39.8a1.9,1.9,0,0,0,0,3.8,2,2,0,0,0,1.9-1.9h0A2,2,0,0,0,21.9,39.8Zm0,3.1a1.2,1.2,0,0,1,0-2.4,1.13,1.13,0,0,1,1.2,1.1,1.39,1.39,0,0,1-1.2,1.3Z"/><path d="M14.2,38.2a1.9,1.9,0,0,0,0,3.8,2,2,0,0,0,1.9-1.9h0A1.9,1.9,0,0,0,14.2,38.2Zm0,3.1a1.2,1.2,0,1,1,1.2-1.2h0a1.16,1.16,0,0,1-1.2,1.2Z"/><path d="M7.8,33.9a1.9,1.9,0,0,0,0,3.8,2,2,0,0,0,1.9-1.9h0A2,2,0,0,0,7.8,33.9Zm0,3.2a1.2,1.2,0,0,1,0-2.4A1.16,1.16,0,0,1,9,35.9H9A1.38,1.38,0,0,1,7.8,37.1Z"/><path d="M3.4,27.4a1.9,1.9,0,0,0-1.9,1.9,2,2,0,0,0,1.9,1.9,2,2,0,0,0,1.9-1.9,1.9,1.9,0,0,0-1.9-1.9Zm0,3.2a1.2,1.2,0,0,1,0-2.4,1.16,1.16,0,0,1,1.2,1.2h0a1.22,1.22,0,0,1-1.2,1.2Z"/><path d="M3.9,21.8A1.9,1.9,0,0,0,2,19.9a1.92,1.92,0,0,0-2,1.9,1.9,1.9,0,0,0,1.9,1.9,2,2,0,0,0,2-1.9Zm-3.1,0A1.16,1.16,0,0,1,2,20.6,1.2,1.2,0,0,1,2,23,1.16,1.16,0,0,1,.8,21.8Z"/><path d="M3.5,16.1a1.9,1.9,0,1,0,0-3.8,2,2,0,0,0-1.9,1.9,1.9,1.9,0,0,0,1.9,1.9Zm0-3.1a1.2,1.2,0,0,1,0,2.4,1.24,1.24,0,0,1-1.2-1.3h0A1.08,1.08,0,0,1,3.5,13Z"/><path d="M7.8,9.6A1.9,1.9,0,1,0,5.9,7.7h0A1.84,1.84,0,0,0,7.8,9.6Zm0-3.1A1.16,1.16,0,0,1,9,7.7,1.16,1.16,0,0,1,7.8,8.9,1.16,1.16,0,0,1,6.6,7.7h0A1.16,1.16,0,0,1,7.8,6.5Z"/><path d="M14.3,5.3a1.9,1.9,0,0,0,0-3.8,2,2,0,0,0-1.9,1.9,1.9,1.9,0,0,0,1.9,1.9Zm0-3.1a1.16,1.16,0,0,1,1.2,1.2,1.2,1.2,0,0,1-2.4,0,1.16,1.16,0,0,1,1.2-1.2Z"/><path d="M39.7,21.8A17.85,17.85,0,1,0,17.6,39.1l-1.6,7,.7.2,1.6-7a16.52,16.52,0,0,0,7,0l1.6,7,.7-.2-1.6-7A17.83,17.83,0,0,0,39.7,21.8Zm-17.8,17a18.41,18.41,0,0,1-3.3-.3l.3-1.5a15.15,15.15,0,0,0,6,0l.3,1.5A18.41,18.41,0,0,1,21.9,38.8Zm0-15.1h0l2.9,12.6a13.69,13.69,0,0,1-5.7,0Zm-.7-.9a1.1,1.1,0,0,1-.6-1,1.16,1.16,0,0,1,1.4-.9,1.18,1.18,0,0,1,.9.9,1.1,1.1,0,0,1-.6,1l-.2-1.1a.37.37,0,0,0-.5-.2.22.22,0,0,0-.2.2Zm1.4.8a2,2,0,1,0-2.6-1,2.41,2.41,0,0,0,1,1L18.2,36.2a14.84,14.84,0,1,1,7.2,0Zm3.3,14.8-.3-1.5a15.61,15.61,0,1,0-7.5,0l-.3,1.5a17,17,0,1,1,8.1,0Z"/></g></g></svg>