<svg xmlns="http://www.w3.org/2000/svg" viewBox="0 0 60.47 37.61"><title>o2_arena</title><g id="Layer_2" data-name="Layer 2"><g id="Layer_1-2" data-name="Layer 1"><path d="M52.4,23.16l3.13-11.91-.72-.19L51.7,22.89a42.66,42.66,0,0,0-5.22-1.57l.58.09L49.28,6.87l-.74-.11L46.32,21.28A70.33,70.33,0,0,0,32,19.6V0h-.75V19.59h-1q-3.16,0-6.14.23L22.68,3l-.75.06,1.43,16.79a67.74,67.74,0,0,0-7.36,1L13.8,6.76l-.74.11L15.22,21c-1.44.3-2.81.65-4.08,1L7.95,9.91l-.72.19,3.2,12.15C4,24.32,0,27.41,0,30.91H.8C.8,25.05,14,20.29,30.26,20.29s29.46,4.77,29.46,10.62h.75C60.42,27.91,57.4,25.18,52.4,23.16Z"/><rect x="31.76" y="11.44" width="17.02" height="0.75" transform="matrix(0.08, -1, 1, 0.08, 25.28, 51.02)"/><path d="M14.55,25.61c-5.41,0-9.81,2.69-9.81,6s4.4,6,9.81,6,9.81-2.69,9.81-6S20,25.61,14.55,25.61Zm0,11.25c-5,0-9.06-2.35-9.06-5.25s4.07-5.25,9.06-5.25,9.06,2.35,9.06,5.25S19.54,36.86,14.55,36.86Z"/><path d="M14.55,28.76C12,28.76,10,30,10,31.62s2,2.86,4.54,2.86,4.54-1.26,4.54-2.86S17.09,28.76,14.55,28.76Zm0,5c-2.06,0-3.79-1-3.79-2.11s1.74-2.11,3.79-2.11,3.79,1,3.79,2.11S16.6,33.76,14.55,33.76Z"/></g></g></svg>