<svg xmlns="http://www.w3.org/2000/svg" viewBox="0 0 50.1 39.4"><g><g><rect x="8" y="7.6" width="0.8" height="11.7"/><rect x="10.9" y="7.6" width="0.8" height="11.7"/><polygon points="9.8 2.1 11.1 5.2 11.8 4.9 9.8 0 7.9 4.9 8.6 5.2 9.8 2.1"/><path d="M50.1,22.2H44.2V5.6H36.3V8.7H13.8V5.6H5.9V22.3H0v.8H5.9V39.2h7.9V22.8l9.1-5.4-.4-.6L13.7,22V12.2H36.3V22l-8.8-5.1-.4.6,9.2,5.4V39.4h7.9V23h5.9Zm-37,16.1H6.7V6.3h6.4Zm.7-26.9v-2H36.4v2ZM43.5,38.6H37.1V6.3h6.4Z"/><rect x="41.4" y="7.6" width="0.8" height="11.7"/><rect x="38.4" y="7.6" width="0.8" height="11.7"/><polygon points="40.3 2.1 41.5 5.2 42.2 4.9 40.3 0 38.4 4.9 39.1 5.2 40.3 2.1"/></g></g></svg>