<svg xmlns="http://www.w3.org/2000/svg" viewBox="0 0 38.5 47.53"><title>battersea</title><g id="Layer_2" data-name="Layer 2"><g id="Layer_1-2" data-name="Layer 1"><polygon points="1 47.52 0 47.5 0.98 8.8 7.1 8.8 8.06 47.5 7.06 47.52 6.12 9.8 1.96 9.8 1 47.52"/><polygon points="31.45 47.52 30.45 47.5 31.42 8.8 37.54 8.8 38.5 47.5 37.5 47.52 36.56 9.8 32.4 9.8 31.45 47.52"/><rect x="7.34" y="29.03" width="23.7" height="1"/><rect x="7.34" y="33.97" width="23.7" height="1"/><rect x="7.41" y="39.84" width="23.7" height="1"/><rect x="7.41" y="44.97" width="23.7" height="1"/><rect x="3.54" y="12.93" width="1" height="30.2"/><rect x="33.98" y="12.93" width="1" height="30.2"/><path d="M7.6,7.65A2.81,2.81,0,0,1,5.83,7,1.9,1.9,0,0,1,3.78,4.17c0-.06,0-.12,0-.18A2,2,0,0,1,5.42,2,2.88,2.88,0,0,1,8.2,0a2.83,2.83,0,0,1,2.74,2.52,1.9,1.9,0,0,1-.85,3.66,2.87,2.87,0,0,1-.48.65A2.81,2.81,0,0,1,7.6,7.65ZM6.06,5.88l.24.24a1.87,1.87,0,0,0,2.59,0,1.81,1.81,0,0,0,.43-.67L9.49,5l.46.16a.9.9,0,1,0,.58-1.7l-.15,0L10,3.33V2.88a1.83,1.83,0,0,0-3.64-.34L6.25,3H5.82a1,1,0,0,0-1,1,1.14,1.14,0,0,0,0,.21l0,.23-.15.18A.9.9,0,0,0,5.75,6Z"/></g></g></svg>