<svg xmlns="http://www.w3.org/2000/svg" viewBox="0 0 18.99 47.57"><title>big_ben</title><g id="Layer_2" data-name="Layer 2"><g id="Layer_1-2" data-name="Layer 1"><polygon points="17.32 47.57 16.32 47.57 16.34 26.3 2.65 26.3 2.64 47.57 1.64 47.57 1.65 25.3 17.34 25.3 17.32 47.57"/><path d="M9.49,40.66a5.91,5.91,0,1,1,5.91-5.91A5.92,5.92,0,0,1,9.49,40.66Zm0-10.82a4.91,4.91,0,1,0,4.91,4.91A4.92,4.92,0,0,0,9.49,29.84Z"/><rect x="3.3" y="44.88" width="4.38" height="1" transform="translate(-39.9 50.77) rotate(-89.89)"/><rect x="7.33" y="44.88" width="4.38" height="1" transform="translate(-35.88 54.8) rotate(-89.89)"/><rect x="11.36" y="44.88" width="4.38" height="1" transform="translate(-31.86 58.83) rotate(-89.89)"/><polygon points="0.94 28.14 0 27.81 4.22 15.88 14.84 15.88 18.99 27.81 18.05 28.14 14.13 16.88 4.92 16.88 0.94 28.14"/><path d="M14.05,16.88H5v-4.5h9.06ZM6,15.88h7.06v-2.5H6Z"/><polygon points="14.34 13.81 9.52 2.55 4.76 13.77 3.84 13.38 9.52 0 15.26 13.42 14.34 13.81"/></g></g></svg>