<svg xmlns="http://www.w3.org/2000/svg" viewBox="0 0 43.96 47.49"><title>eye</title><g id="Layer_2" data-name="Layer 2"><g id="Layer_1-2" data-name="Layer 1"><path d="M22,4.12A2.06,2.06,0,1,1,24,2.06,2.06,2.06,0,0,1,22,4.12ZM22,1A1.06,1.06,0,1,0,23,2.06,1.06,1.06,0,0,0,22,1Z"/><path d="M22,24A2.06,2.06,0,1,1,24,22,2.06,2.06,0,0,1,22,24Zm0-3.12A1.06,1.06,0,1,0,23,22,1.06,1.06,0,0,0,22,20.92Z"/><path d="M29.65,5.63a2.06,2.06,0,1,1,2.06-2.06A2.06,2.06,0,0,1,29.65,5.63Zm0-3.12a1.06,1.06,0,1,0,1.06,1.06A1.06,1.06,0,0,0,29.65,2.51Z"/><path d="M36.08,9.94a2.06,2.06,0,1,1,2.06-2.06A2.06,2.06,0,0,1,36.08,9.94Zm0-3.12a1.06,1.06,0,1,0,1.06,1.06A1.06,1.06,0,0,0,36.08,6.82Z"/><path d="M40.42,16.44a2.06,2.06,0,1,1,2.06-2.06A2.06,2.06,0,0,1,40.42,16.44Zm0-3.12a1.06,1.06,0,1,0,1.06,1.06A1.06,1.06,0,0,0,40.42,13.32Z"/><path d="M41.9,24A2.06,2.06,0,1,1,44,22,2.06,2.06,0,0,1,41.9,24Zm0-3.12A1.06,1.06,0,1,0,43,22,1.06,1.06,0,0,0,41.9,20.92Z"/><path d="M40.34,31.69a2.06,2.06,0,1,1,2.06-2.06A2.06,2.06,0,0,1,40.34,31.69Zm0-3.12a1.06,1.06,0,1,0,1.06,1.06A1.06,1.06,0,0,0,40.34,28.57Z"/><path d="M36.08,38.14a2.06,2.06,0,1,1,2.06-2.06A2.06,2.06,0,0,1,36.08,38.14Zm0-3.12a1.06,1.06,0,1,0,1.06,1.06A1.06,1.06,0,0,0,36.08,35Z"/><path d="M29.58,42.49a2.06,2.06,0,1,1,2.06-2.06A2.06,2.06,0,0,1,29.58,42.49Zm0-3.12a1.06,1.06,0,1,0,1.06,1.06A1.06,1.06,0,0,0,29.58,39.37Z"/><path d="M22,44A2.06,2.06,0,1,1,24,41.9,2.06,2.06,0,0,1,22,44Zm0-3.12A1.06,1.06,0,1,0,23,41.9,1.06,1.06,0,0,0,22,40.84Z"/><path d="M14.33,42.4a2.06,2.06,0,1,1,2.06-2.06A2.06,2.06,0,0,1,14.33,42.4Zm0-3.12a1.06,1.06,0,1,0,1.06,1.06A1.06,1.06,0,0,0,14.33,39.28Z"/><path d="M7.88,38.14a2.06,2.06,0,1,1,2.06-2.06A2.06,2.06,0,0,1,7.88,38.14Zm0-3.12a1.06,1.06,0,1,0,1.06,1.06A1.06,1.06,0,0,0,7.88,35Z"/><path d="M3.54,31.64A2.06,2.06,0,1,1,5.6,29.58,2.06,2.06,0,0,1,3.54,31.64Zm0-3.12A1.06,1.06,0,1,0,4.6,29.58,1.06,1.06,0,0,0,3.54,28.52Z"/><path d="M2.06,24A2.06,2.06,0,1,1,4.12,22,2.06,2.06,0,0,1,2.06,24Zm0-3.12A1.06,1.06,0,1,0,3.12,22,1.06,1.06,0,0,0,2.06,20.92Z"/><path d="M22,37.69A15.71,15.71,0,1,1,37.69,22,15.73,15.73,0,0,1,22,37.69ZM22,7.27A14.71,14.71,0,1,0,36.69,22,14.73,14.73,0,0,0,22,7.27Z"/><path d="M22,35.73A13.75,13.75,0,1,1,35.73,22,13.77,13.77,0,0,1,22,35.73Zm0-26.5A12.75,12.75,0,1,0,34.73,22,12.76,12.76,0,0,0,22,9.23Z"/><path d="M3.62,16.39a2.06,2.06,0,1,1,2.06-2.06A2.06,2.06,0,0,1,3.62,16.39Zm0-3.12a1.06,1.06,0,1,0,1.06,1.06A1.06,1.06,0,0,0,3.62,13.27Z"/><path d="M7.88,9.94A2.06,2.06,0,1,1,9.94,7.88,2.06,2.06,0,0,1,7.88,9.94Zm0-3.12A1.06,1.06,0,1,0,8.94,7.88,1.06,1.06,0,0,0,7.88,6.82Z"/><path d="M14.4,5.63a2.06,2.06,0,1,1,2.06-2.06A2.06,2.06,0,0,1,14.4,5.63Zm0-3.12a1.06,1.06,0,1,0,1.06,1.06A1.06,1.06,0,0,0,14.4,2.51Z"/><path d="M27.59,47.49a.5.5,0,0,1-.49-.39L22,24.28,16.92,47.1a.5.5,0,0,1-1-.22l5.55-25a.5.5,0,0,1,.49-.39h0a.5.5,0,0,1,.49.39l5.61,25a.5.5,0,0,1-.38.6Z"/></g></g></svg>