<svg xmlns="http://www.w3.org/2000/svg" viewBox="0 0 51.48 47.75"><title>kew_gardens</title><g id="Layer_2" data-name="Layer 2"><g id="Layer_1-2" data-name="Layer 1"><rect y="17.55" width="7.91" height="1"/><rect x="43.57" y="17.44" width="7.91" height="1"/><polygon points="8.41 24.11 7.41 24.11 7.41 11.27 25.85 11.27 25.85 12.27 8.41 12.27 8.41 24.11"/><path d="M8.41,11.77h-1c0-4.7,3.22-8.23,9.32-10.21A35.31,35.31,0,0,1,25.84,0l0,1C25.68,1,8.41,1.47,8.41,11.77Z"/><rect y="23.61" width="51.48" height="1"/><polygon points="44.29 24.11 43.29 24.11 43.29 12.27 25.85 12.27 25.85 11.27 44.29 11.27 44.29 24.11"/><path d="M44.29,11.77h-1C43.29,1.46,26,1,25.84,1l0-1A35.31,35.31,0,0,1,35,1.56C41.07,3.54,44.29,7.07,44.29,11.77Z"/><polygon points="32.56 47.75 31.56 47.75 31.58 35.8 20.13 35.8 20.11 47.75 19.11 47.75 19.13 34.8 32.58 34.8 32.56 47.75"/><path d="M32.58,34.93h-1a5.73,5.73,0,0,0-11.45,0h-1a6.73,6.73,0,0,1,13.45,0Z"/></g></g></svg>