<svg xmlns="http://www.w3.org/2000/svg" viewBox="0 0 50.02 47.33"><title>tower_bridge</title><g id="Layer_2" data-name="Layer 2"><g id="Layer_1-2" data-name="Layer 1"><polygon points="13.86 47.33 12.86 47.33 12.86 11.88 6.72 11.88 6.72 47.33 5.72 47.33 5.72 10.88 13.86 10.88 13.86 47.33"/><rect x="12.61" y="24.8" width="10.83" height="1" transform="translate(-10.34 12.64) rotate(-30.47)"/><rect y="27.54" width="6.22" height="1"/><rect x="7.81" y="13.05" width="1" height="11.66"/><rect x="10.76" y="13.05" width="1" height="11.66"/><polygon points="10.89 10.64 9.79 7.83 8.69 10.64 7.75 10.28 9.79 5.09 11.82 10.28 10.89 10.64"/><rect x="13.36" y="13.99" width="11.65" height="1"/><polygon points="44.3 47.33 43.3 47.33 43.3 11.88 37.16 11.88 37.16 47.33 36.16 47.33 36.16 10.88 44.3 10.88 44.3 47.33"/><rect x="31.49" y="19.88" width="1" height="10.83" transform="translate(-6.03 40.04) rotate(-59.53)"/><rect x="43.8" y="27.54" width="6.22" height="1"/><rect x="41.21" y="13.05" width="1" height="11.66"/><rect x="38.26" y="13.05" width="1" height="11.66"/><polygon points="39.13 10.64 38.19 10.28 40.23 5.09 42.27 10.28 41.33 10.64 40.23 7.83 39.13 10.64"/><rect x="25.01" y="13.99" width="11.65" height="1"/><rect x="13.36" y="16.71" width="11.65" height="1"/><rect x="25.01" y="16.71" width="11.65" height="1"/><path d="M3.15,35.94a2.85,2.85,0,0,1-1.85-.66A1.87,1.87,0,0,0,0,34.81v-1a2.85,2.85,0,0,1,1.85.66,1.87,1.87,0,0,0,1.27.47,1.87,1.87,0,0,0,1.27-.47,2.86,2.86,0,0,1,1.86-.66,2.78,2.78,0,0,1,1.84.66,1.79,1.79,0,0,0,1.24.46,1.87,1.87,0,0,0,1.27-.47,2.86,2.86,0,0,1,1.86-.66,2.82,2.82,0,0,1,1.85.66,1.85,1.85,0,0,0,1.27.47,1.87,1.87,0,0,0,1.28-.47,2.94,2.94,0,0,1,3.71,0,2,2,0,0,0,2.54,0,2.94,2.94,0,0,1,3.72,0,1.94,1.94,0,0,0,2.53,0,2.95,2.95,0,0,1,3.72,0,1.94,1.94,0,0,0,2.53,0,2.86,2.86,0,0,1,1.86-.66,2.8,2.8,0,0,1,1.84.66,2,2,0,0,0,2.57,0,2.8,2.8,0,0,1,1.84-.66,2.85,2.85,0,0,1,1.86.66,2,2,0,0,0,2.55,0A2.85,2.85,0,0,1,50,33.8v1a1.87,1.87,0,0,0-1.27.47,3,3,0,0,1-3.72,0,1.87,1.87,0,0,0-1.27-.47,1.83,1.83,0,0,0-1.25.46,3,3,0,0,1-3.75,0,1.83,1.83,0,0,0-1.25-.46,1.89,1.89,0,0,0-1.28.47,2.93,2.93,0,0,1-3.7,0,2,2,0,0,0-2.55,0,2.93,2.93,0,0,1-3.7,0,2,2,0,0,0-2.54,0,2.95,2.95,0,0,1-3.72,0,2,2,0,0,0-2.54,0,2.95,2.95,0,0,1-3.73,0,1.84,1.84,0,0,0-1.26-.47,1.89,1.89,0,0,0-1.28.47,2.85,2.85,0,0,1-1.85.66,2.77,2.77,0,0,1-1.83-.66,1.8,1.8,0,0,0-1.25-.46A1.89,1.89,0,0,0,5,35.28,2.85,2.85,0,0,1,3.15,35.94Z"/><path d="M25,9.12a4.56,4.56,0,1,1,4.56-4.56A4.56,4.56,0,0,1,25,9.12ZM25,1a3.56,3.56,0,1,0,3.56,3.56A3.56,3.56,0,0,0,25,1Z"/></g></g></svg>