<svg xmlns="http://www.w3.org/2000/svg" xmlns:xlink="http://www.w3.org/1999/xlink" viewBox="0 0 664.04 264.66"><defs><style>.cls-1,.cls-2,.cls-3,.cls-4,.cls-6{opacity:0.3;}.cls-2{fill:url(#linear-gradient);}.cls-3{fill:url(#linear-gradient-2);}.cls-4{fill:url(#linear-gradient-3);}.cls-5{fill:url(#linear-gradient-4);}.cls-6{fill:url(#linear-gradient-5);}</style><linearGradient id="linear-gradient" x1="0.46" y1="112.01" x2="77.63" y2="112.01" gradientUnits="userSpaceOnUse"><stop offset="0.07" stop-color="#c914bc"/><stop offset="0.59" stop-color="#911ac4"/><stop offset="0.99" stop-color="#731ac4"/></linearGradient><linearGradient id="linear-gradient-2" x1="0" y1="111.9" x2="77.17" y2="111.9" xlink:href="#linear-gradient"/><linearGradient id="linear-gradient-3" x1="66.32" y1="0.81" x2="68.59" y2="0.81" xlink:href="#linear-gradient"/><linearGradient id="linear-gradient-4" x1="11.76" y1="223.85" x2="14.23" y2="223.85" xlink:href="#linear-gradient"/><linearGradient id="linear-gradient-5" x1="14.23" y1="132.99" x2="664.04" y2="132.99" xlink:href="#linear-gradient"/></defs><title>o2_light_3</title><g id="Layer_2" data-name="Layer 2"><g id="Layer_2-2" data-name="Layer 2"><g class="cls-1"><path class="cls-2" d="M66.32.32l2.27,1c12.76,8.33,12,58.95-2.26,117.39S29.39,222.41,14.23,223.91l-2.47-.16c-15.07-3.68-15.07-56.68,0-118.38S51.26-3.36,66.32.32Z"/><path class="cls-3" d="M65.87.2l2.27,1c12.76,8.33,12,58.95-2.26,117.39S28.93,222.29,13.78,223.79l-2.47-.16C-3.76,220-3.77,167,11.3,105.26S50.8-3.48,65.87.2Z"/><path class="cls-4" d="M66.32.32a7.47,7.47,0,0,1,2.27,1Z"/><path class="cls-5" d="M14.23,223.91a7.27,7.27,0,0,1-2.47-.16Z"/><path class="cls-6" d="M68.59,1.31,664,264.66,14.23,223.91c15.16-1.5,37.83-46.78,52.1-105.21S81.35,9.64,68.59,1.31Z"/></g></g></g></svg>